<svg width="20.000000" height="20.000000" viewBox="0 0 20 20" fill="none" xmlns="http://www.w3.org/2000/svg" xmlns:xlink="http://www.w3.org/1999/xlink">
	<desc>
			Created with Pixso.
	</desc>
	<defs>
		<clipPath id="clip2508_1007">
			<rect id="hand-wash" width="20.000000" height="20.000000" fill="white" fill-opacity="0"/>
		</clipPath>
	</defs>
	<g clip-path="url(#clip2508_1007)">
		<path id="Vector" d="M19.6641 4.59277C19.4375 4.54199 19.2188 4.7002 19.1758 4.94043L18.6367 7.80273C18.375 7.68066 18.1758 7.4707 17.9453 7.21875C17.6328 6.87695 17.2578 6.47461 16.6445 6.31836C16.5938 5.35449 16.207 4.45215 15.5117 3.76465L14.1211 2.39062C13.3398 1.61719 12.2539 1.19922 11.1523 1.25488L6.16797 1.48926C5.97656 1.49805 5.81641 1.63574 5.77734 1.82324C5.67578 2.33789 5.78516 2.85742 6.08984 3.28809C6.39062 3.7168 6.86719 4.00586 7.39062 4.08008L8.43359 4.22754C8.61328 4.25195 8.75391 4.36816 8.80859 4.53711C8.83594 4.61523 8.875 4.81836 8.69531 4.99609L6.08984 7.57422C5.96875 7.46973 5.85156 7.35254 5.73047 7.21875C5.33203 6.78711 4.83984 6.25 3.89062 6.25C2.94531 6.25 2.45312 6.78711 2.05469 7.21875C1.82422 7.4707 1.625 7.68164 1.36328 7.80371L0.824219 4.94043C0.78125 4.7002 0.5625 4.54297 0.335938 4.59277C0.109375 4.64062 -0.0351562 4.87402 0.0078125 5.11426L2.30859 17.3262C2.46094 18.1514 3.14844 18.75 3.94141 18.75L16.0586 18.75C16.8516 18.75 17.5391 18.1514 17.6914 17.3262L19.9922 5.11426C20.0352 4.87402 19.8906 4.64062 19.6641 4.59277ZM9.28125 5.58887C9.63281 5.24316 9.75391 4.74023 9.60156 4.27441C9.44531 3.80566 9.04297 3.47168 8.55078 3.40137L7.50781 3.25488C7.20703 3.21191 6.94531 3.05273 6.76953 2.80664C6.66406 2.6543 6.59766 2.4834 6.58203 2.30469L11.1914 2.08789C12.0586 2.0459 12.918 2.37305 13.5352 2.9834L14.9258 4.35645C15.4492 4.875 15.75 5.5498 15.8086 6.27148C15.0586 6.37305 14.6289 6.83594 14.2773 7.21875C13.9219 7.6084 13.6406 7.91699 13.0586 7.91699C12.4805 7.91699 12.1992 7.6084 11.8398 7.21875C11.4453 6.78711 10.9531 6.25 10.0078 6.25C9.05859 6.25 8.56641 6.78711 8.17188 7.21875C7.81641 7.6084 7.53125 7.91699 6.95312 7.91699C6.94531 7.91699 6.9375 7.91406 6.92969 7.91406L9.28125 5.58887ZM11.1562 10.541C10.9922 10.377 10.7305 10.375 10.5664 10.5381L7.45312 13.6162C7.26953 13.7969 6.97266 13.7959 6.79297 13.6162C6.70703 13.5312 6.65625 13.417 6.65625 13.2969C6.65625 13.1797 6.70312 13.0693 6.78516 12.9844L9.90625 9.89844C10.0703 9.7373 10.0703 9.47266 9.91016 9.30957C9.74609 9.14551 9.48438 9.14355 9.32031 9.30664L6.20703 12.3848C6.20312 12.3887 6.19922 12.3926 6.19531 12.3965L5.58203 13.001C5.40234 13.1797 5.10547 13.1797 4.92578 13.001C4.83594 12.915 4.78906 12.8018 4.78906 12.6807C4.78906 12.5605 4.83594 12.4473 4.92578 12.3613L8.03906 9.2832C8.20312 9.12109 8.20312 8.85742 8.03906 8.69336C7.97266 8.62305 7.88281 8.58887 7.78906 8.57812C8.22656 8.38574 8.52734 8.0625 8.78516 7.78125C9.14453 7.3916 9.42578 7.08301 10.0078 7.08301C10.5859 7.08301 10.8672 7.3916 11.2266 7.78125C11.6211 8.21289 12.1133 8.75 13.0586 8.75C14.0078 8.75 14.5 8.21289 14.8945 7.78125C15.1719 7.47754 15.4102 7.22852 15.7734 7.13086C15.6523 7.71777 15.3633 8.25781 14.9258 8.69043L9.94141 13.6162C9.76172 13.7959 9.46484 13.7959 9.28125 13.6162C9.19531 13.5312 9.14844 13.417 9.14844 13.2969C9.14844 13.1768 9.19531 13.0635 9.28125 12.9775L11.1523 11.1299C11.3164 10.9688 11.3164 10.7041 11.1562 10.541ZM6.21875 8.61914C6.42969 8.69824 6.66797 8.75 6.95312 8.75C7.13672 8.75 7.30078 8.72461 7.45703 8.6875C7.45312 8.68945 7.45312 8.68945 7.45312 8.69043L4.96094 11.1533C4.77734 11.334 4.48047 11.333 4.30078 11.1533C4.21484 11.0674 4.16797 10.9541 4.16797 10.834C4.16797 10.7139 4.21484 10.6006 4.30078 10.5146L6.21875 8.61914ZM16.875 17.1523C16.7969 17.5654 16.4531 17.917 16.0586 17.917L3.94141 17.917C3.54688 17.917 3.20312 17.5654 3.125 17.1523L1.51953 8.62891C2.03516 8.45215 2.375 8.10449 2.66797 7.78223C3.02734 7.3916 3.3125 7.08301 3.89062 7.08301C4.47266 7.08301 4.75781 7.3916 5.11719 7.78223C5.23047 7.90625 5.35547 8.03809 5.49219 8.16504L3.71484 9.92188C3.46875 10.165 3.33203 10.4893 3.33203 10.834C3.33203 11.1787 3.46875 11.5029 3.71484 11.7461C3.83984 11.8691 3.98438 11.9619 4.13672 12.0244C4.01953 12.2207 3.95703 12.4463 3.95703 12.6807C3.95703 13.0254 4.09375 13.3496 4.33984 13.5928C4.76562 14.0176 5.42188 14.0811 5.92188 13.7852C5.98438 13.9424 6.08203 14.0859 6.20703 14.209C6.45703 14.459 6.78906 14.583 7.12109 14.583C7.45312 14.583 7.78516 14.459 8.03906 14.209L8.42969 13.8232C8.49219 13.9648 8.58203 14.0957 8.69922 14.209C9.20312 14.708 10.0234 14.708 10.5273 14.209L15.5117 9.2832C16.0938 8.70508 16.4648 7.97656 16.6016 7.1875C16.8828 7.30762 17.0938 7.52148 17.332 7.78125C17.6289 8.10449 17.9648 8.45215 18.4805 8.62891L16.875 17.1523Z" fill="#787A80" fill-opacity="1.000000" fill-rule="nonzero"/>
	</g>
</svg>
