<svg width="20.000000" height="20.000000" viewBox="0 0 20 20" fill="none" xmlns="http://www.w3.org/2000/svg" xmlns:xlink="http://www.w3.org/1999/xlink">
	<desc>
			Created with Pixso.
	</desc>
	<defs>
		<clipPath id="clip2508_1011">
			<rect id="no-bleach" width="20.000000" height="20.000000" fill="white" fill-opacity="0"/>
		</clipPath>
	</defs>
	<g clip-path="url(#clip2508_1011)">
		<path id="Vector" d="M19.832 17.5811L17.9297 16.1777L14.0312 8.37012L19.832 4.08496C20.0156 3.94824 20.0547 3.68652 19.918 3.50195C19.7812 3.31641 19.5195 3.2793 19.3359 3.41504L13.6523 7.61426L10.3711 1.04492C10.2305 0.762695 9.76953 0.762695 9.62891 1.04492L6.34766 7.61426L0.664062 3.41504C0.480469 3.2793 0.21875 3.31641 0.0820312 3.50195C-0.0546875 3.68652 -0.015625 3.94824 0.167969 4.08496L5.96875 8.37012L2.07031 16.1777L0.167969 17.5811C-0.015625 17.7178 -0.0546875 17.9785 0.0820312 18.1641C0.164062 18.2744 0.289062 18.333 0.417969 18.333C0.503906 18.333 0.589844 18.3066 0.664062 18.251L1.25 17.8184L0.878906 18.5625C0.8125 18.6914 0.820312 18.8447 0.894531 18.9678C0.972656 19.0908 1.10547 19.166 1.25 19.166L18.75 19.166C18.8945 19.166 19.0273 19.0908 19.1055 18.9678C19.1797 18.8447 19.1875 18.6914 19.1211 18.5625L18.75 17.8184L19.3359 18.251C19.4102 18.3066 19.4961 18.333 19.582 18.333C19.7109 18.333 19.8359 18.2744 19.918 18.1641C20.0547 17.9785 20.0156 17.7178 19.832 17.5811ZM16.4531 15.084L10.6992 10.833L13.3477 8.87598L16.4531 15.084ZM10 2.18164L12.9688 8.12012L10 10.3154L7.03125 8.12012L10 2.18164ZM6.65234 8.87598L9.30078 10.833L3.54688 15.084L6.65234 8.87598ZM1.92578 18.333L2.72656 16.7256L10 11.3506L17.2734 16.7256L18.0742 18.333L1.92578 18.333Z" fill="#787A80" fill-opacity="1.000000" fill-rule="nonzero"/>
	</g>
</svg>
