<svg width="20.000000" height="20.000000" viewBox="0 0 20 20" fill="none" xmlns="http://www.w3.org/2000/svg" xmlns:xlink="http://www.w3.org/1999/xlink">
	<desc>
			Created with Pixso.
	</desc>
	<defs>
		<clipPath id="clip2508_1009">
			<rect id="no-ironing" width="20.000000" height="20.000000" fill="white" fill-opacity="0"/>
		</clipPath>
	</defs>
	<g clip-path="url(#clip2508_1009)">
		<path id="Vector" d="M19.9961 15.3613L18.4727 3.94629C18.3633 3.12207 17.6523 2.5 16.8203 2.5L7.08203 2.5C6.85156 2.5 6.66797 2.68652 6.66797 2.91699C6.66797 3.14746 6.85156 3.33301 7.08203 3.33301L16.8203 3.33301C17.2383 3.33301 17.5938 3.64453 17.6484 4.05664L18.2188 8.33301L15.043 8.33301L17.3359 6.58105C17.5195 6.44141 17.5547 6.17969 17.4141 5.99707C17.2734 5.81348 17.0117 5.78027 16.8281 5.91895L13.6719 8.33301L7.08203 8.33301C6.84375 8.33301 6.60547 8.3457 6.375 8.36914L3.16797 5.91895C2.98828 5.78027 2.72656 5.81348 2.58594 5.99707C2.44531 6.17969 2.48047 6.44141 2.66406 6.58105L5.27344 8.57617C2.24219 9.37988 0 12.1377 0 15.417C0 15.6465 0.1875 15.833 0.417969 15.833L3.86719 15.833L2.66406 16.752C2.48047 16.8916 2.44531 17.1533 2.58594 17.3359C2.66797 17.4434 2.79297 17.5 2.91797 17.5C3.00391 17.5 3.09375 17.4717 3.16797 17.4141L5.23828 15.833L14.7617 15.833L16.8281 17.4141C16.9062 17.4717 16.9961 17.5 17.082 17.5C17.207 17.5 17.332 17.4434 17.4141 17.3359C17.5547 17.1533 17.5195 16.8916 17.3359 16.752L16.1328 15.833L19.582 15.833C19.7031 15.833 19.8164 15.7812 19.8945 15.6914C19.9766 15.6006 20.0117 15.4805 19.9961 15.3613ZM12.582 9.16699L10 11.1426L7.41797 9.16699L12.582 9.16699L12.582 9.16699ZM4.95703 15L0.847656 15C1.04297 12.0615 3.27734 9.67773 6.14453 9.24414L9.3125 11.667L4.95703 15ZM6.32812 15L10 12.1914L13.6719 15L6.32812 15ZM15.043 15L10.6836 11.667L13.9531 9.16699L18.3281 9.16699L19.1055 15L15.043 15Z" fill="#787A80" fill-opacity="1.000000" fill-rule="nonzero"/>
	</g>
</svg>
