<svg width="20.000000" height="20.000000" viewBox="0 0 20 20" fill="none" xmlns="http://www.w3.org/2000/svg" xmlns:xlink="http://www.w3.org/1999/xlink">
	<desc>
			Created with Pixso.
	</desc>
	<defs>
		<clipPath id="clip2508_1013">
			<rect id="no-tumble-dry" width="20.000000" height="20.000000" fill="white" fill-opacity="0"/>
		</clipPath>
	</defs>
	<g clip-path="url(#clip2508_1013)">
		<path id="Vector" d="M19.168 18.5771L19.168 1.42285L19.8789 0.710938C20.0391 0.548828 20.0391 0.285156 19.8789 0.12207C19.7148 -0.0410156 19.4531 -0.0410156 19.2891 0.12207L18.5781 0.833008L1.42188 0.833008L0.710938 0.12207C0.546875 -0.0410156 0.285156 -0.0410156 0.121094 0.12207C-0.0390625 0.285156 -0.0390625 0.548828 0.121094 0.710938L0.832031 1.42285L0.832031 18.5771L0.121094 19.2891C-0.0390625 19.4512 -0.0390625 19.7148 0.121094 19.8779C0.203125 19.959 0.308594 20 0.417969 20C0.523438 20 0.628906 19.959 0.710938 19.8779L1.42188 19.167L18.5781 19.167L19.2891 19.8779C19.3711 19.959 19.4766 20 19.582 20C19.6914 20 19.7969 19.959 19.8789 19.8779C20.0391 19.7148 20.0391 19.4512 19.8789 19.2891L19.168 18.5771ZM10 1.66699L17.7461 1.66699L15.582 3.83008C14.1016 2.49023 12.1484 1.66699 10 1.66699C7.85156 1.66699 5.89844 2.49023 4.41797 3.83008L2.25781 1.66699L10 1.66699ZM9.41016 10L4.41797 14.9922C3.23047 13.6641 2.5 11.918 2.5 10C2.5 8.08203 3.23047 6.33594 4.41797 5.00781L9.41016 10ZM5.00781 4.41895C6.33594 3.22949 8.08203 2.5 10 2.5C11.918 2.5 13.6641 3.22949 14.9922 4.41895L10 9.41113L5.00781 4.41895ZM10 10.5889L14.9922 15.5811C13.6641 16.7705 11.918 17.5 10 17.5C8.08203 17.5 6.33594 16.7705 5.00781 15.5811L10 10.5889ZM10.5898 10L15.582 5.00781C16.7695 6.33594 17.5 8.08203 17.5 10C17.5 11.918 16.7695 13.6641 15.582 14.9922L10.5898 10ZM1.66797 10L1.66797 2.25586L3.82812 4.41895C2.49219 5.89844 1.66797 7.85254 1.66797 10C1.66797 12.1475 2.49219 14.1016 3.82812 15.5811L1.66797 17.7441L1.66797 10ZM10 18.333L2.25781 18.333L4.41797 16.1699C5.89844 17.5098 7.85156 18.333 10 18.333C12.1484 18.333 14.1016 17.5098 15.582 16.1699L17.7461 18.333L10 18.333ZM18.332 10L18.332 17.7441L16.1719 15.5811C17.5078 14.1016 18.332 12.1475 18.332 10C18.332 7.85254 17.5078 5.89844 16.1719 4.41895L18.332 2.25586L18.332 10Z" fill="#787A80" fill-opacity="1.000000" fill-rule="nonzero"/>
	</g>
</svg>
