<svg width="21.500000" height="18.500000" viewBox="0 0 21.5 18.5" fill="none" xmlns="http://www.w3.org/2000/svg" xmlns:xlink="http://www.w3.org/1999/xlink">
	<desc>
			Created with Pixso.
	</desc>
	<defs/>
	<path id="Vector (Stroke)" d="M3 2C2.44922 2 2 2.44727 2 3L2 4.5L19.5 4.5L19.5 3C19.5 2.44727 19.0508 2 18.5 2L3 2ZM19.5 6.5L2 6.5L2 9L19.5 9L19.5 6.5ZM19.5 11L2 11L2 15.5C2 16.0527 2.44922 16.5 3 16.5L18.5 16.5C19.0508 16.5 19.5 16.0527 19.5 15.5L19.5 11ZM0 3C0 1.34277 1.34375 0 3 0L18.5 0C20.1562 0 21.5 1.34277 21.5 3L21.5 15.5C21.5 17.1572 20.1562 18.5 18.5 18.5L3 18.5C1.34375 18.5 0 17.1572 0 15.5L0 3Z" fill="#FFFFFF" fill-opacity="1.000000" fill-rule="evenodd"/>
</svg>
