<svg width="25.000000" height="25.000000" viewBox="0 0 25 25" fill="none" xmlns="http://www.w3.org/2000/svg" xmlns:xlink="http://www.w3.org/1999/xlink">
	<desc>
			Created with Pixso.
	</desc>
	<defs>
		<clipPath id="clip2837_9123">
			<rect id="Upload" width="24.000000" height="24.000000" transform="translate(0.500000 0.500000)" fill="white" fill-opacity="0"/>
		</clipPath>
	</defs>
	<g clip-path="url(#clip2837_9123)">
		<path id="Vector (Stroke)" d="M11.793 2.04297C12.1836 1.65234 12.8164 1.65234 13.207 2.04297L17.707 6.54297C18.0977 6.93359 18.0977 7.56641 17.707 7.95703C17.3164 8.34766 16.6836 8.34766 16.293 7.95703L13.5 5.16406L13.5 17.75C13.5 18.3027 13.0508 18.75 12.5 18.75C11.9492 18.75 11.5 18.3027 11.5 17.75L11.5 5.16406L8.70703 7.95703C8.31641 8.34766 7.68359 8.34766 7.29297 7.95703C6.90234 7.56641 6.90234 6.93359 7.29297 6.54297L11.793 2.04297ZM2.75 14.5C3.30078 14.5 3.75 14.9473 3.75 15.5L3.75 19.25C3.75 20.3545 4.64453 21.25 5.75 21.25L19.25 21.25C20.3555 21.25 21.25 20.3545 21.25 19.25L21.25 15.5C21.25 14.9473 21.6992 14.5 22.25 14.5C22.8008 14.5 23.25 14.9473 23.25 15.5L23.25 19.25C23.25 21.459 21.4609 23.25 19.25 23.25L5.75 23.25C3.53906 23.25 1.75 21.459 1.75 19.25L1.75 15.5C1.75 14.9473 2.19922 14.5 2.75 14.5Z" fill="#9A9CA5" fill-opacity="1.000000" fill-rule="evenodd"/>
	</g>
	<rect id="Upload" width="24.000000" height="24.000000" transform="translate(0.500000 0.500000)" stroke="#000000" stroke-opacity="1.000000" stroke-width="1.000000"/>
</svg>
