<svg width="120" height="64" viewBox="0 0 120 64" fill="none" xmlns="http://www.w3.org/2000/svg">
<g id="master-card">
<rect x="0.5" y="0.5" width="119" height="63" rx="3.5" fill="#F4F5F7"/>
<rect x="0.5" y="0.5" width="119" height="63" rx="3.5" stroke="#D7DADD"/>
<g id="group">
<path id="Vector" d="M86.1984 52.4262V52.5341H86.2991C86.318 52.5344 86.3366 52.5297 86.3531 52.5204C86.3596 52.5157 86.3649 52.5095 86.3684 52.5023C86.372 52.4951 86.3736 52.4871 86.3733 52.4791C86.3736 52.4712 86.372 52.4634 86.3684 52.4563C86.3649 52.4493 86.3596 52.4433 86.3531 52.4388C86.3368 52.4291 86.318 52.4243 86.2991 52.4251H86.1984V52.4262ZM86.3002 52.3498C86.3433 52.3471 86.386 52.3595 86.4211 52.3849C86.4351 52.3964 86.4463 52.411 86.4536 52.4276C86.461 52.4442 86.4643 52.4623 86.4634 52.4804C86.4641 52.496 86.4614 52.5116 86.4555 52.5261C86.4496 52.5405 86.4408 52.5536 86.4294 52.5643C86.4024 52.5878 86.3685 52.6019 86.3328 52.6046L86.4678 52.7584H86.3638L86.2397 52.6056H86.1995V52.7584H86.1126V52.35H86.3015L86.3002 52.3498ZM86.2732 52.8993C86.3187 52.8997 86.3639 52.8905 86.4057 52.8723C86.446 52.855 86.4826 52.8301 86.5136 52.7992C86.5447 52.7682 86.5696 52.7316 86.5868 52.6912C86.6222 52.6057 86.6222 52.5095 86.5868 52.424C86.5693 52.3838 86.5445 52.3472 86.5136 52.316C86.4826 52.2851 86.446 52.2603 86.4057 52.2429C86.3636 52.2257 86.3186 52.217 86.2732 52.2175C86.227 52.2171 86.1811 52.2257 86.1382 52.2429C86.097 52.2599 86.0596 52.2848 86.0278 52.316C85.9801 52.365 85.9478 52.427 85.935 52.4941C85.9222 52.5613 85.9294 52.6308 85.9558 52.6939C85.9722 52.7344 85.9967 52.7711 86.0278 52.8019C86.0596 52.8331 86.0971 52.858 86.1382 52.875C86.1809 52.8932 86.2268 52.9024 86.2732 52.902V52.8993ZM86.2732 52.1193C86.3918 52.1192 86.5057 52.1657 86.5903 52.2488C86.6311 52.2888 86.6636 52.3364 86.6858 52.3889C86.7089 52.4429 86.7208 52.5009 86.7208 52.5596C86.7208 52.6183 86.7089 52.6764 86.6858 52.7303C86.663 52.7826 86.6306 52.8301 86.5903 52.8704C86.5489 52.9101 86.5007 52.9421 86.4481 52.9649C86.3928 52.9884 86.3332 53.0003 86.2732 53C86.2124 53.0004 86.1521 52.9885 86.0961 52.9649C86.0429 52.9426 85.9942 52.9106 85.9528 52.8704C85.9125 52.8286 85.8805 52.7795 85.8586 52.7257C85.8355 52.6718 85.8236 52.6137 85.8236 52.555C85.8236 52.4964 85.8355 52.4383 85.8586 52.3843C85.8809 52.3318 85.9134 52.2842 85.9541 52.2443C85.995 52.2034 86.0438 52.1712 86.0975 52.1498C86.1535 52.1262 86.2137 52.1143 86.2745 52.1147L86.2732 52.1193ZM44.9469 50.5423C44.9469 49.7636 45.457 49.124 46.2907 49.124C47.0874 49.124 47.625 49.7361 47.625 50.5423C47.625 51.3485 47.0874 51.9606 46.2907 51.9606C45.457 51.9606 44.9469 51.3209 44.9469 50.5423ZM48.5332 50.5423V48.3265H47.57V48.8662C47.2645 48.4673 46.801 48.2172 46.1708 48.2172C44.9293 48.2172 43.955 49.1909 43.955 50.5434C43.955 51.8958 44.9288 52.8696 46.1708 52.8696C46.8008 52.8696 47.2645 52.6191 47.57 52.2205V52.7584H48.5322V50.5423H48.5332ZM81.0804 50.5423C81.0804 49.7636 81.5905 49.124 82.4245 49.124C83.222 49.124 83.7588 49.7361 83.7588 50.5423C83.7588 51.3485 83.222 51.9606 82.4245 51.9606C81.5908 51.9606 81.0804 51.3209 81.0804 50.5423ZM84.6678 50.5423V46.5479H83.7038V48.8662C83.3982 48.4673 82.9348 48.2172 82.3046 48.2172C81.0631 48.2172 80.0888 49.1909 80.0888 50.5434C80.0888 51.8958 81.0626 52.8696 82.3046 52.8696C82.9348 52.8696 83.3982 52.6191 83.7038 52.2205V52.7584H84.6678V50.5423ZM60.4885 49.0784C61.1093 49.0784 61.5079 49.4676 61.6096 50.1528H59.3112C59.414 49.5132 59.8024 49.0784 60.4888 49.0784H60.4885ZM60.5079 48.2147C59.2097 48.2147 58.3015 49.1594 58.3015 50.5409C58.3015 51.9495 59.2462 52.8672 60.5724 52.8672C61.2396 52.8672 61.8507 52.7006 62.3883 52.2464L61.9162 51.5325C61.5449 51.8294 61.072 51.9959 60.6275 51.9959C60.0067 51.9959 59.4416 51.7085 59.3026 50.911H62.5918C62.6012 50.7911 62.6109 50.6702 62.6109 50.5407C62.6012 49.1596 61.7473 48.2145 60.5074 48.2145L60.5079 48.2147ZM72.1372 50.5407C72.1372 49.762 72.6473 49.1224 73.481 49.1224C74.2777 49.1224 74.8153 49.7345 74.8153 50.5407C74.8153 51.3469 74.2777 51.959 73.481 51.959C72.6473 51.959 72.1369 51.3193 72.1369 50.5407H72.1372ZM75.7232 50.5407V48.3265H74.7605V48.8662C74.4539 48.4673 73.9916 48.2172 73.3614 48.2172C72.1199 48.2172 71.1456 49.1909 71.1456 50.5434C71.1456 51.8958 72.1193 52.8696 73.3614 52.8696C73.9916 52.8696 74.4539 52.6191 74.7605 52.2205V52.7584H75.7235V50.5423L75.7232 50.5407ZM66.6974 50.5407C66.6974 51.8845 67.6329 52.8669 69.0606 52.8669C69.7278 52.8669 70.1723 52.7185 70.653 52.3387L70.1904 51.5601C69.8287 51.82 69.449 51.959 69.0299 51.959C68.2609 51.9495 67.6955 51.3935 67.6955 50.5407C67.6955 49.6878 68.2609 49.1321 69.0299 49.1224C69.4479 49.1224 69.8277 49.2614 70.1904 49.5213L70.653 48.7426C70.1715 48.3629 69.727 48.2145 69.0606 48.2145C67.6329 48.2145 66.6974 49.1966 66.6974 50.5407ZM79.1153 48.2145C78.5596 48.2145 78.1976 48.4744 77.9474 48.8636V48.3265H76.9928V52.756H77.9572V50.2729C77.9572 49.5399 78.2721 49.1326 78.9018 49.1326C79.108 49.1297 79.3127 49.1675 79.5042 49.2441L79.8011 48.3362C79.5879 48.2522 79.3099 48.2153 79.1147 48.2153L79.1153 48.2145ZM53.2955 48.6787C52.8321 48.3732 52.1935 48.2153 51.4891 48.2153C50.3669 48.2153 49.6444 48.7532 49.6444 49.6333C49.6444 50.3555 50.1823 50.8011 51.1728 50.9401L51.6278 51.0049C52.156 51.0791 52.4054 51.2181 52.4054 51.4683C52.4054 51.8108 52.0545 52.0062 51.3957 52.0062C50.7286 52.0062 50.2471 51.793 49.9224 51.5428L49.4698 52.2939C49.998 52.6831 50.6651 52.8688 51.3876 52.8688C52.6669 52.8688 53.4083 52.2664 53.4083 51.423C53.4083 50.6443 52.8248 50.237 51.8608 50.098L51.4068 50.0322C50.9898 49.9782 50.6557 49.8943 50.6557 49.5974C50.6557 49.2735 50.9707 49.0787 51.4991 49.0787C52.0645 49.0787 52.6119 49.2919 52.8802 49.4584L53.2971 48.6798L53.2955 48.6787ZM65.7245 48.2161C65.1687 48.2161 64.8068 48.476 64.5577 48.8652V48.3265H63.6031V52.756H64.5663V50.2729C64.5663 49.5399 64.8813 49.1326 65.511 49.1326C65.7172 49.1297 65.9219 49.1675 66.1134 49.2441L66.4103 48.3362C66.197 48.2522 65.919 48.2153 65.7239 48.2153L65.7245 48.2161ZM57.5045 48.3265H55.9294V46.9827H54.9556V48.3265H54.0572V49.2069H54.9556V51.2276C54.9556 52.2553 55.3546 52.8674 56.494 52.8674C56.9121 52.8674 57.3936 52.7379 57.6991 52.5249L57.4209 51.7001C57.1334 51.8667 56.8185 51.9506 56.568 51.9506C56.0865 51.9506 55.9294 51.6537 55.9294 51.2092V49.2077H57.5045V48.3265ZM43.1032 52.7571V49.9771C43.1032 48.9302 42.436 48.2258 41.3605 48.2163C40.7951 48.2069 40.2118 48.3829 39.8035 49.0044C39.498 48.5132 39.0165 48.2163 38.3396 48.2163C37.8664 48.2163 37.4041 48.3553 37.0422 48.8741V48.3265H36.0781V52.756H37.0497V50.2999C37.0497 49.531 37.4762 49.1224 38.1347 49.1224C38.7744 49.1224 39.098 49.5394 39.098 50.2902V52.7554H40.0718V50.2994C40.0718 49.5305 40.5163 49.1218 41.1557 49.1218C41.8134 49.1218 42.1273 49.5388 42.1273 50.2897V52.7549L43.1032 52.7571Z" fill="#231F20"/>
<path id="Vector_2" d="M86.7496 38.0218V37.374H86.5809L86.3858 37.8185L86.1918 37.374H86.0225V38.0218H86.1424V37.5338L86.3248 37.9548H86.449L86.6314 37.5327V38.0218H86.7502H86.7496ZM85.6795 38.0218V37.485H85.8954V37.3756H85.3438V37.485H85.5597V38.0218H85.6784H85.6795Z" fill="#F79410"/>
<path id="Vector_3" d="M67.578 40.8012H52.9805V14.5674H67.5783L67.578 40.8012Z" fill="#FF5F00"/>
<path id="Vector_4" d="M53.9051 27.6841C53.9051 22.3626 56.3968 17.6222 60.2768 14.5672C57.3398 12.2514 53.7073 10.9945 49.9671 11C40.7537 11 33.2852 18.4696 33.2852 27.6841C33.2852 36.8986 40.7537 44.3682 49.9671 44.3682C53.7073 44.3738 57.34 43.1169 60.2771 40.801C56.3973 37.7466 53.9051 33.0059 53.9051 27.6841Z" fill="#EB001B"/>
<path id="Vector_5" d="M87.2706 27.6841C87.2706 36.8986 79.8021 44.3682 70.5887 44.3682C66.848 44.3737 63.2149 43.1168 60.2773 40.801C64.1584 37.7461 66.6501 33.0059 66.6501 27.6841C66.6501 22.3623 64.1584 17.6222 60.2773 14.5672C63.2149 12.2514 66.8478 10.9946 70.5884 11C79.8018 11 87.2703 18.4696 87.2703 27.6841" fill="#F79E1B"/>
</g>
</g>
</svg>
