<svg width="120" height="64" viewBox="0 0 120 64" fill="none" xmlns="http://www.w3.org/2000/svg">
<g id="pay-pal">
<rect x="0.5" y="0.5" width="119" height="63" rx="3.5" fill="#F4F5F7"/>
<rect x="0.5" y="0.5" width="119" height="63" rx="3.5" stroke="#D7DADD"/>
<g id="group">
<g id="Group">
<path id="Vector" d="M35.2745 23.3814C34.3584 22.3372 32.7024 21.8895 30.584 21.8895H24.4355C24.2258 21.8894 24.023 21.9642 23.8634 22.1003C23.7039 22.2364 23.5982 22.425 23.5654 22.6322L21.0064 38.8698C20.9946 38.9452 20.9992 39.0222 21.0199 39.0956C21.0407 39.1689 21.0771 39.2369 21.1267 39.2949C21.1762 39.3528 21.2378 39.3993 21.3071 39.4312C21.3763 39.4631 21.4517 39.4796 21.528 39.4795H25.3237L26.2771 33.4328L26.2475 33.6222C26.2797 33.4155 26.3847 33.2271 26.5435 33.0909C26.7024 32.9548 26.9046 32.8798 27.1138 32.8796H28.9176C32.4611 32.8796 35.2357 31.4403 36.0462 27.2767C36.0702 27.1536 36.091 27.0338 36.1091 26.9166C36.3499 25.3778 36.1074 24.3303 35.2751 23.3819" fill="#003087"/>
<path id="Vector_2" d="M81.7441 31.108C81.5121 32.6316 80.3486 32.6316 79.2234 32.6316H78.5831L79.0324 29.7869C79.0598 29.6151 79.2076 29.4887 79.3816 29.4887H79.6755C80.4416 29.4887 81.1651 29.4887 81.5383 29.9248C81.7611 30.1859 81.8284 30.5733 81.7441 31.108ZM81.2543 27.1327H77.0098C76.8692 27.1328 76.7332 27.183 76.6263 27.2743C76.5194 27.3655 76.4485 27.4919 76.4264 27.6307L74.7113 38.5141C74.7034 38.5645 74.7065 38.6161 74.7204 38.6652C74.7343 38.7143 74.7587 38.7599 74.7919 38.7987C74.825 38.8376 74.8662 38.8688 74.9126 38.8902C74.9589 38.9116 75.0094 38.9228 75.0604 38.9229H77.2385C77.4416 38.9229 77.6145 38.7751 77.6462 38.5748L78.1333 35.4883C78.1782 35.202 78.4255 34.9903 78.7156 34.9903H80.0585C82.855 34.9903 84.4683 33.638 84.8897 30.9559C85.0796 29.7837 84.8974 28.8621 84.3485 28.2169C83.7449 27.5076 82.675 27.1322 81.2548 27.1322" fill="#009CDE"/>
<path id="Vector_3" d="M51.4707 31.1081C51.2387 32.6317 50.0752 32.6317 48.9495 32.6317H48.3092L48.7585 29.787C48.7859 29.6152 48.9337 29.4888 49.1077 29.4888H49.4016C50.1677 29.4888 50.8912 29.4888 51.2644 29.9249C51.4877 30.186 51.555 30.5734 51.4707 31.1081ZM50.981 27.1328H46.7364C46.4464 27.1328 46.199 27.3441 46.1536 27.6308L44.4379 38.5142C44.43 38.5646 44.433 38.6162 44.4469 38.6654C44.4607 38.7146 44.4851 38.7602 44.5183 38.799C44.5515 38.8379 44.5927 38.8691 44.6391 38.8905C44.6855 38.9119 44.736 38.9229 44.7871 38.923H46.8141C47.1042 38.923 47.351 38.7117 47.3964 38.4249L47.8599 35.4889C47.9048 35.2022 48.1522 34.9909 48.4422 34.9909H49.7852C52.5817 34.9909 54.195 33.6381 54.6164 30.956C54.8063 29.7838 54.624 28.8622 54.0751 28.217C53.4715 27.5077 52.4016 27.1323 50.9815 27.1323L50.981 27.1328ZM60.8354 35.0155C60.6384 36.1768 59.7174 36.9567 58.5413 36.9567C57.9519 36.9567 57.4796 36.7668 57.1765 36.4078C56.8755 36.052 56.7627 35.5447 56.858 34.9805C57.0407 33.8291 57.9776 33.0246 59.1356 33.0246C59.713 33.0246 60.1809 33.2162 60.4906 33.5784C60.802 33.9435 60.9246 34.4535 60.8354 35.0155ZM63.668 31.0589H61.6355C61.551 31.0588 61.4693 31.0889 61.405 31.1438C61.3408 31.1987 61.2983 31.2747 61.2853 31.3582L61.1966 31.9263L61.0543 31.7205C60.6143 31.0818 59.6331 30.8679 58.6535 30.8679C56.4081 30.8679 54.49 32.5698 54.1167 34.9559C53.9225 36.1473 54.1983 37.285 54.8736 38.0791C55.4936 38.8086 56.3786 39.1123 57.4331 39.1123C59.2434 39.1123 60.2471 37.9499 60.2471 37.9499L60.1563 38.5147C60.1483 38.5652 60.1513 38.6169 60.1652 38.6661C60.1791 38.7153 60.2036 38.7609 60.2368 38.7998C60.2701 38.8386 60.3113 38.8698 60.3578 38.8912C60.4043 38.9126 60.4548 38.9236 60.506 38.9235H62.336C62.626 38.9235 62.8734 38.7128 62.9188 38.4255L64.0177 31.4682C64.0256 31.4177 64.0225 31.366 64.0085 31.3168C63.9945 31.2676 63.9701 31.222 63.9368 31.1831C63.9035 31.1443 63.8622 31.1131 63.8157 31.0917C63.7692 31.0704 63.7186 31.0594 63.6675 31.0594" fill="#003087"/>
<path id="Vector_4" d="M91.1076 35.0155C90.9106 36.1768 89.9896 36.9567 88.8135 36.9567C88.2241 36.9567 87.7518 36.7668 87.4486 36.4078C87.1476 36.052 87.0349 35.5447 87.1301 34.9805C87.3129 33.8291 88.2493 33.0246 89.4078 33.0246C89.9852 33.0246 90.4531 33.2162 90.7628 33.5784C91.0742 33.9435 91.1968 34.4535 91.1076 35.0155ZM93.9402 31.0589H91.9077C91.8232 31.0588 91.7414 31.0889 91.6772 31.1438C91.613 31.1987 91.5705 31.2747 91.5574 31.3582L91.4688 31.9263L91.3265 31.7205C90.8865 31.0818 89.9053 30.8679 88.9257 30.8679C86.6808 30.8679 84.7627 32.5698 84.3889 34.9559C84.1946 36.1473 84.471 37.285 85.1463 38.0791C85.7664 38.8086 86.6513 39.1123 87.7058 39.1123C89.5167 39.1123 90.5204 37.9499 90.5204 37.9499L90.4295 38.5147C90.4214 38.5652 90.4243 38.6168 90.438 38.666C90.4518 38.7152 90.4761 38.7609 90.5093 38.7997C90.5424 38.8386 90.5837 38.8699 90.6301 38.8912C90.6765 38.9126 90.727 38.9236 90.7781 38.9235H92.6076C92.8977 38.9235 93.145 38.7128 93.191 38.4255L94.2899 31.4682C94.2978 31.4177 94.2947 31.366 94.2807 31.3168C94.2667 31.2676 94.2423 31.222 94.209 31.1831C94.1757 31.1443 94.1344 31.1131 94.0879 31.0917C94.0414 31.0704 93.9908 31.0594 93.9397 31.0594" fill="#009CDE"/>
<path id="Vector_5" d="M74.4941 31.0592H72.4506C72.2553 31.0592 72.073 31.1561 71.9636 31.3181L69.1452 35.4685L67.9505 31.4801C67.9141 31.3584 67.8394 31.2517 67.7376 31.1758C67.6358 31.0999 67.5122 31.0589 67.3852 31.0587H65.3773C65.321 31.0587 65.2655 31.0722 65.2155 31.0979C65.1654 31.1237 65.1222 31.161 65.0895 31.2068C65.0567 31.2526 65.0354 31.3056 65.0272 31.3613C65.019 31.417 65.0242 31.4738 65.0424 31.5271L67.2916 38.1303L65.176 41.1156C65.1386 41.1686 65.1164 41.2309 65.112 41.2956C65.1076 41.3603 65.121 41.4249 65.1508 41.4825C65.1806 41.5401 65.2257 41.5884 65.2811 41.6222C65.3365 41.6559 65.4001 41.6738 65.4649 41.6738H67.5062C67.6988 41.6738 67.8799 41.5792 67.9905 41.4204L74.7842 31.6147C74.821 31.5617 74.8427 31.4996 74.8468 31.4351C74.8509 31.3707 74.8372 31.3064 74.8073 31.2491C74.7775 31.1919 74.7325 31.1439 74.6772 31.1104C74.622 31.077 74.5587 31.0592 74.4941 31.0592Z" fill="#003087"/>
<path id="Vector_6" d="M96.3366 27.4325L94.5941 38.515C94.5862 38.5655 94.5893 38.6171 94.6033 38.6663C94.6172 38.7155 94.6416 38.7611 94.6749 38.7999C94.7081 38.8388 94.7493 38.8699 94.7958 38.8913C94.8422 38.9127 94.8927 38.9238 94.9438 38.9238H96.6956C96.9856 38.9238 97.233 38.7126 97.2784 38.4258L98.9962 27.542C99.0042 27.4915 99.0012 27.4398 98.9873 27.3906C98.9734 27.3414 98.949 27.2958 98.9157 27.2569C98.8825 27.218 98.8412 27.1868 98.7947 27.1655C98.7482 27.1441 98.6977 27.1331 98.6465 27.1332H96.6863C96.6019 27.133 96.5202 27.163 96.4561 27.2178C96.3919 27.2726 96.3495 27.3486 96.3366 27.432" fill="#009CDE"/>
<path id="Vector_7" d="M35.2745 23.3814C34.3584 22.3372 32.7024 21.8895 30.584 21.8895H24.4355C24.2258 21.8894 24.023 21.9642 23.8634 22.1003C23.7039 22.2364 23.5982 22.425 23.5654 22.6322L21.0064 38.8698C20.9946 38.9452 20.9992 39.0222 21.0199 39.0956C21.0407 39.1689 21.0771 39.2369 21.1267 39.2949C21.1762 39.3528 21.2378 39.3993 21.3071 39.4312C21.3763 39.4631 21.4517 39.4796 21.528 39.4795H25.3237L26.2771 33.4328L26.2475 33.6222C26.2797 33.4155 26.3847 33.2271 26.5435 33.0909C26.7024 32.9548 26.9046 32.8798 27.1138 32.8796H28.9176C32.4611 32.8796 35.2357 31.4403 36.0462 27.2767C36.0702 27.1536 36.091 27.0338 36.1091 26.9166C36.3499 25.3778 36.1074 24.3303 35.2751 23.3819" fill="#003087"/>
<path id="Vector_8" d="M27.3016 26.9365C27.3304 26.7555 27.4227 26.5907 27.562 26.4716C27.7013 26.3526 27.8785 26.2871 28.0618 26.2869H32.882C33.4528 26.2869 33.9853 26.3241 34.4718 26.4018C34.7378 26.4446 35.0009 26.5034 35.2598 26.578C35.5538 26.6607 35.8383 26.774 36.1086 26.9162C36.3505 25.3768 36.1075 24.3299 35.2752 23.3809C34.3585 22.3373 32.703 21.8897 30.5846 21.8897H24.4356C24.2261 21.8898 24.0235 21.9647 23.8642 22.1008C23.7049 22.2369 23.5994 22.4254 23.5666 22.6323L21.0065 38.8683C20.9946 38.9436 20.9991 39.0207 21.0198 39.0941C21.0405 39.1675 21.0768 39.2355 21.1263 39.2935C21.1759 39.3515 21.2374 39.3981 21.3066 39.43C21.3759 39.462 21.4512 39.4785 21.5275 39.4785H25.3238L26.2771 33.4313L27.3016 26.9365Z" fill="#003087"/>
<path id="Vector_9" d="M36.1084 26.9159C36.0896 27.0363 36.0686 27.1564 36.0455 27.276C35.235 31.439 32.4604 32.8789 28.9169 32.8789H27.1126C26.9034 32.879 26.7012 32.9539 26.5424 33.0901C26.3837 33.2263 26.2788 33.4148 26.2468 33.6215L25.3231 39.4782L25.0604 41.1397C25.0499 41.2057 25.0539 41.2731 25.072 41.3374C25.0902 41.4017 25.122 41.4612 25.1654 41.512C25.2088 41.5628 25.2627 41.6035 25.3233 41.6315C25.384 41.6594 25.45 41.6739 25.5168 41.6738H28.7166C29.0953 41.6738 29.4171 41.398 29.4767 41.0242L29.5079 40.8612L30.111 37.0391L30.1493 36.8279C30.178 36.6467 30.2704 36.4818 30.4098 36.3627C30.5493 36.2436 30.7266 36.1782 30.91 36.1783H31.3889C34.4885 36.1783 36.9156 34.9196 37.6249 31.277C37.9204 29.7557 37.7671 28.4844 36.9846 27.5918C36.7361 27.3151 36.4392 27.086 36.1084 26.9159Z" fill="#009CDE"/>
<path id="Vector_10" d="M35.2589 26.5789C35.1352 26.5422 35.0077 26.5094 34.8763 26.4804C34.745 26.4514 34.6093 26.4256 34.4703 26.4037C33.9832 26.3244 33.4513 26.2872 32.8799 26.2872H28.0603C27.8768 26.287 27.6993 26.3524 27.5599 26.4716C27.4205 26.5909 27.3283 26.7561 27.3001 26.9373L26.2756 33.4333L26.2461 33.6221C26.2781 33.4154 26.3829 33.2269 26.5417 33.0907C26.7005 32.9545 26.9027 32.8796 27.1119 32.8794H28.9162C32.4597 32.8794 35.2343 31.4402 36.0447 27.2766C36.0688 27.1535 36.0891 27.0342 36.1077 26.9165C35.8936 26.8045 35.6707 26.7104 35.4411 26.6352C35.3815 26.6155 35.3207 26.5969 35.2589 26.5783" fill="#012169"/>
</g>
</g>
</g>
</svg>
